Coordinates
version=1
nRows=17
nColumns=40
inDegrees=yes

Units are S.I. units (second, meters, Newtons, ...)
If the header above contains a line with 'inDegrees', this indicates whether rotational values are in degrees (yes) or radians (no).

endheader
time	pelvis_tilt	pelvis_list	pelvis_rotation	pelvis_tx	pelvis_ty	pelvis_tz	hip_flexion_r	hip_adduction_r	hip_rotation_r	knee_angle_r	knee_angle_r_beta	ankle_angle_r	subtalar_angle_r	mtp_angle_r	hip_flexion_l	hip_adduction_l	hip_rotation_l	knee_angle_l	knee_angle_l_beta	ankle_angle_l	subtalar_angle_l	mtp_angle_l	lumbar_extension	lumbar_bending	lumbar_rotation	arm_flex_r	arm_add_r	arm_rot_r	elbow_flex_r	pro_sup_r	wrist_flex_r	wrist_dev_r	arm_flex_l	arm_add_l	arm_rot_l	elbow_flex_l	pro_sup_l	wrist_flex_l	wrist_dev_l
      0.73200000	     14.39414695	     -2.53071328	     -0.50658213	      0.88390826	      0.92515787	     -0.30430936	    -29.74423886	      1.64861021	     -3.54739082	     25.05474248	      0.43728775	     -4.23564821	      0.00000000	      0.00000000	     18.70503150	     -1.83668400	      1.23878475	     20.95213969	      0.36568382	    -18.31932538	      0.00000000	      0.00000000	    -29.07410575	      1.90972817	      4.30832226	     11.10127446	    -18.36931035	     15.00130767	     42.67759250	     73.03743741	      0.00000000	      0.00000000	      5.00734426	    -21.42143212	     12.25368306	     45.89911954	     75.03168299	      0.00000000	      0.00000000
      0.73600000	     14.42176020	     -2.39177612	     -0.56092150	      0.88992732	      0.92499004	     -0.30494370	    -29.74459126	      1.42285053	     -3.10109533	     25.63638271	      0.44743929	     -4.90698888	      0.00000000	      0.00000000	     18.75730436	     -1.60592159	      1.56851249	     21.65102778	      0.37788172	    -18.62456175	      0.00000000	      0.00000000	    -29.07530431	      1.71596151	      4.25140570	     11.00160529	    -18.25767047	     14.92063703	     42.57475076	     73.04886036	      0.00000000	      0.00000000	      5.03511876	    -21.45646764	     12.20502794	     45.66067642	     75.03220348	      0.00000000	      0.00000000
      0.74000000	     14.44609961	     -2.20906839	     -0.55117763	      0.89627080	      0.92490810	     -0.30569845	    -29.73966911	      1.18106270	     -2.81239425	     26.23970462	      0.45796924	     -5.73477309	      0.00000000	      0.00000000	     18.87868487	     -1.31990495	      1.82392694	     22.54051525	      0.39340621	    -18.93618011	      0.00000000	      0.00000000	    -29.02413949	      1.50586379	      4.12622487	     10.84606854	    -18.09010119	     14.78869398	     42.38361113	     73.05097865	      0.00000000	      0.00000000	      5.03301768	    -21.47864117	     12.18232644	     45.43111207	     75.01389406	      0.00000000	      0.00000000
      0.74400000	     14.38986127	     -2.02133665	     -0.27682063	      0.90323170	      0.92461394	     -0.30658590	    -29.73755893	      1.05013336	     -3.01512787	     26.72217763	      0.46638998	     -6.89306443	      0.00000000	      0.00000000	     19.17642004	     -1.00287752	      1.93090019	     23.69991398	      0.41364153	    -18.99954185	      0.00000000	      0.00000000	    -28.78801089	      1.39570653	      3.79419913	     10.56142352	    -17.84389676	     14.52871683	     42.12941060	     73.10541198	      0.00000000	      0.00000000	      4.96783839	    -21.56632221	     12.28241392	     45.12435981	     75.02724251	      0.00000000	      0.00000000
      0.74800000	     14.38764021	     -1.84120114	     -0.09668363	      0.90976755	      0.92454265	     -0.30730603	    -29.73313038	      0.90879731	     -2.95994345	     27.23351540	      0.47531451	     -7.95246407	      0.00000000	      0.00000000	     19.27871758	     -0.67666753	      2.35670107	     24.58387537	      0.42906957	    -19.13615752	      0.00000000	      0.00000000	    -28.68873562	      1.23477082	      3.53956176	     10.35015314	    -17.61303935	     14.31520295	     41.93086639	     73.15577829	      0.00000000	      0.00000000	      4.96474140	    -21.69514427	     12.42706208	     44.91404316	     75.03825353	      0.00000000	      0.00000000
      0.75200000	     14.43821458	     -1.60723675	     -0.00473485	      0.91628670	      0.92470721	     -0.30815360	    -29.72959257	      0.65748442	     -2.84629143	     27.81371430	      0.48544089	     -9.11965256	      0.00000000	      0.00000000	     19.22787562	     -0.29228679	      2.72255126	     25.33295395	      0.44214346	    -19.17970370	      0.00000000	      0.00000000	    -28.64940960	      1.02172633	      3.32461000	     10.16470277	    -17.41517998	     14.13607898	     41.70706531	     73.21891768	      0.00000000	      0.00000000	      4.93808504	    -21.73732323	     12.42599359	     44.65955888	     74.96954315	      0.00000000	      0.00000000
      0.75600000	     14.48349272	     -1.39496255	      0.08020437	      0.92274388	      0.92498560	     -0.30881005	    -29.72691444	      0.46788718	     -2.48094126	     28.40713017	      0.49579795	    -10.12474980	      0.00000000	      0.00000000	     19.12536118	      0.07708123	      3.20140957	     25.96909634	      0.45324623	    -19.22324245	      0.00000000	      0.00000000	    -28.62430092	      0.80306517	      3.11294459	     10.00139017	    -17.20605324	     13.99273867	     41.49783807	     73.25035479	      0.00000000	      0.00000000	      4.90553728	    -21.83464523	     12.47416710	     44.46692909	     74.97099877	      0.00000000	      0.00000000
      0.76000000	     14.55793015	     -1.14518622	      0.23579329	      0.92955650	      0.92530419	     -0.30969927	    -29.72122615	      0.19117745	     -2.69355810	     28.99198932	      0.50600567	    -11.69582969	      0.00000000	      0.00000000	     19.00799973	      0.49528424	      3.50932098	     26.72604861	      0.46645754	    -18.87425287	      0.00000000	      0.00000000	    -28.56660250	      0.59382260	      2.83611641	      9.78849387	    -16.96416327	     13.77334938	     41.16571273	     73.33005758	      0.00000000	      0.00000000	      4.85878407	    -21.90847333	     12.59212280	     44.22362114	     74.97058931	      0.00000000	      0.00000000
      0.76400000	     14.59716142	     -0.84084572	      0.43122967	      0.93641163	      0.92569796	     -0.31066328	    -29.71658745	     -0.07901265	     -2.79395694	     29.48927441	      0.51468493	    -13.23232893	      0.00000000	      0.00000000	     18.87204559	      0.99896305	      3.91946267	     27.40190856	      0.47825353	    -18.39814299	      0.00000000	      0.00000000	    -28.47992886	      0.34851327	      2.49343009	      9.52964089	    -16.73378642	     13.57709327	     40.95493645	     73.46474703	      0.00000000	      0.00000000	      4.82208634	    -21.99670572	     12.69429872	     43.89446598	     74.93550892	      0.00000000	      0.00000000
      0.76800000	     14.67248323	     -0.53954005	      0.54813077	      0.94326726	      0.92620285	     -0.31143540	    -29.71258892	     -0.38402104	     -2.83542123	     30.02639031	      0.52405937	    -14.80715610	      0.00000000	      0.00000000	     18.69609737	      1.45903683	      4.15887151	     28.07958687	      0.49008124	    -17.89152484	      0.00000000	      0.00000000	    -28.44047175	      0.05746862	      2.21501656	      9.30303814	    -16.47325141	     13.35491955	     40.67215447	     73.57145271	      0.00000000	      0.00000000	      4.74072757	    -22.10298815	     12.81334826	     43.70804491	     74.86373396	      0.00000000	      0.00000000
      0.77200000	     14.80392644	     -0.30945900	      0.67152454	      0.94986977	      0.92685812	     -0.31233673	    -29.70675736	     -0.64430935	     -2.91803241	     30.59437453	      0.53397257	    -16.49172516	      0.00000000	      0.00000000	     18.43825022	      1.84555949	      4.39374288	     28.70155053	      0.50093656	    -17.46935859	      0.00000000	      0.00000000	    -28.47752645	     -0.13985974	      1.98330777	      9.08456171	    -16.28550666	     13.21546490	     40.45759511	     73.67208622	      0.00000000	      0.00000000	      4.75184855	    -22.16138799	     12.92450898	     43.44620776	     74.82997194	      0.00000000	      0.00000000
      0.77600000	     14.95261407	     -0.08793912	      0.77465806	      0.95666264	      0.92754730	     -0.31299457	    -29.69988732	     -0.89603122	     -3.08288853	     31.18529279	      0.54428604	    -18.27458013	      0.00000000	      0.00000000	     18.14770714	      2.20063007	      4.57994423	     29.33527432	      0.51199712	    -17.09467977	      0.00000000	      0.00000000	    -28.48685514	     -0.35267630	      1.75932819	      8.86943890	    -16.06256938	     13.06823687	     40.14762192	     73.73014435	      0.00000000	      0.00000000	      4.68978202	    -22.30894685	     13.12353147	     43.27857649	     74.81062034	      0.00000000	      0.00000000
      0.78000000	     15.05333492	      0.12860167	      0.95076558	      0.96364264	      0.92824790	     -0.31369481	    -29.69005609	     -1.10354641	     -3.25044884	     31.65771437	      0.55253135	    -20.01987478	      0.00000000	      0.00000000	     17.83675246	      2.58913511	      4.86883616	     29.87110655	      0.52134916	    -16.64678744	      0.00000000	      0.00000000	    -28.47484766	     -0.52712099	      1.46871768	      8.54130471	    -15.83376538	     12.84584432	     40.05555324	     73.82597869	      0.00000000	      0.00000000	      4.59249025	    -22.38608745	     13.18025114	     43.09857200	     74.72710068	      0.00000000	      0.00000000
      0.78400000	     15.18514529	      0.35804098	      1.12886165	      0.97048523	      0.92899374	     -0.31441127	    -29.67720507	     -1.31198667	     -3.42049978	     32.18494549	      0.56173327	    -21.68162294	      0.00000000	      0.00000000	     17.48419000	      2.97726285	      5.11580033	     30.36968129	      0.53005093	    -16.22422770	      0.00000000	      0.00000000	    -28.48449912	     -0.72708061	      1.19398572	      8.28458044	    -15.61451366	     12.67941800	     39.82120172	     73.90298320	      0.00000000	      0.00000000	      4.53504280	    -22.56480103	     13.39976661	     42.96554142	     74.74011140	      0.00000000	      0.00000000
      0.78800000	     15.29952934	      0.57702534	      1.41549137	      0.97749057	      0.92972759	     -0.31498197	    -29.66737342	     -1.44346726	     -3.70617753	     32.65037744	      0.56985659	    -23.40562068	      0.00000000	      0.00000000	     17.10388073	      3.35321203	      5.39845768	     30.81957132	      0.53790299	    -15.63143117	      0.00000000	      0.00000000	    -28.42325107	     -0.88695116	      0.83680876	      8.00068033	    -15.34635370	     12.55009042	     39.55948899	     74.01732507	      0.00000000	      0.00000000	      4.51453308	    -22.72080593	     13.69003400	     42.72095221	     74.66499808	      0.00000000	      0.00000000
      0.79200000	     15.48147797	      0.79092462	      1.76726567	      0.98395146	      0.93065107	     -0.31558034	    -29.65570160	     -1.50874618	     -3.91752258	     33.22554871	      0.57989522	    -24.89613461	      0.00000000	      0.00000000	     16.65232611	      3.74350734	      5.80477949	     31.19055619	      0.54437790	    -15.19425414	      0.00000000	      0.00000000	    -28.55381442	     -1.01453673	      0.42349074	      7.77047897	    -15.08341440	     12.35274449	     39.37993705	     74.11773051	      0.00000000	      0.00000000	      4.48733474	    -22.96601737	     13.92533963	     42.71574566	     74.58110175	      0.00000000	      0.00000000
      0.79600000	     15.67440811	      0.96180749	      1.91673954	      0.99053051	      0.93162642	     -0.31620059	    -29.63273387	     -1.62425272	     -3.84304513	     33.80327948	      0.58997852	    -26.09768564	      0.00000000	      0.00000000	     16.14639722	      4.01184209	      5.94868066	     31.51598517	      0.55005771	    -14.80530619	      0.00000000	      0.00000000	    -28.65719818	     -1.15276359	      0.18067734	      7.58533425	    -14.88313001	     12.18241748	     39.13329172	     74.20178189	      0.00000000	      0.00000000	      4.43708987	    -23.10028480	     14.09409757	     42.61877252	     74.53413400	      0.00000000	      0.00000000
